<svg width="60" height="40" viewBox="0 0 60 40" fill="none" xmlns="http://www.w3.org/2000/svg">
<g clip-path="url(#clip0_303_507)">
<mask id="mask0_303_507" style="mask-type:luminance" maskUnits="userSpaceOnUse" x="0" y="0" width="60" height="40">
<path d="M60 0H0V40H60V0Z" fill="white"/>
</mask>
<g mask="url(#mask0_303_507)">
<mask id="mask1_303_507" style="mask-type:luminance" maskUnits="userSpaceOnUse" x="0" y="0" width="60" height="40">
<path d="M60 0H0V40H60V0Z" fill="white"/>
</mask>
<g mask="url(#mask1_303_507)">
<path fill-rule="evenodd" clip-rule="evenodd" d="M0 0H85.5V3.07812H0V0ZM0 6.15625H85.5V9.2344H0V6.15625ZM0 12.3047H85.5V15.3907H0V12.3047ZM0 18.461H85.5V21.539H0V18.461ZM0 24.6172H85.5V27.6953H0V24.6172ZM0 30.7656H85.5V33.8437H0V30.7656ZM0 36.9219H85.5V40H0V36.9219Z" fill="#BD3D44"/>
<path fill-rule="evenodd" clip-rule="evenodd" d="M0 3.07812H85.5V6.15625H0V3.07812ZM0 9.2344H85.5V12.3047H0V9.2344ZM0 15.3828H85.5V18.461H0V15.3828ZM0 21.539H85.5V24.6172H0V21.539ZM0 27.6953H85.5V30.7734H0V27.6953ZM0 33.8437H85.5V36.9219H0V33.8437Z" fill="white"/>
<path fill-rule="evenodd" clip-rule="evenodd" d="M0 0H34.1982V21.539H0V0Z" fill="#192F5D"/>
<path fill-rule="evenodd" clip-rule="evenodd" d="M2.84766 0.921875L3.16406 1.77344H4.16602L3.35742 2.29687L3.66504 3.15625L2.84766 2.62499L2.03906 3.14843L2.34668 2.29687L1.5293 1.77344H2.54883L2.84766 0.921875ZM8.55176 0.921875L8.85938 1.77344H9.87012L9.05273 2.29687L9.36035 3.15625L8.55176 2.62499L7.73438 3.14843L8.04199 2.29687L7.2334 1.77344H8.23535L8.55176 0.921875ZM14.2471 0.921875L14.5635 1.77344H15.5566L14.748 2.29687L15.0557 3.15625L14.2383 2.62499L13.4297 3.14843L13.7373 2.29687L12.9199 1.77344H13.9307L14.2471 0.921875ZM19.9512 0.921875L20.2588 1.77344H21.2695L20.4521 2.29687L20.7686 3.15625L19.9512 2.62499L19.1338 3.14843L19.4502 2.29687L18.6328 1.77344H19.6348L19.9512 0.921875ZM25.6465 0.921875L25.9629 1.77344H26.9648L26.1563 2.29687L26.4639 3.15625L25.6465 2.62499L24.8379 3.14843L25.1455 2.29687L24.3369 1.77344H25.3389L25.6465 0.921875ZM31.3506 0.921875L31.6582 1.77344H32.6689L31.8516 2.29687L32.168 3.15625L31.3506 2.62499L30.5332 3.14843L30.8496 2.29687L30.0322 1.77344H31.043L31.3506 0.921875ZM5.7041 3.07812L6.01172 3.92969H7.02246L6.20508 4.45313L6.50391 5.30468L5.71289 4.78125L4.89551 5.30468L5.18555 4.45313L4.39453 3.92969H5.39648L5.7041 3.07812ZM11.3994 3.07812L11.7158 3.92969H12.7178L11.9004 4.45313L12.2168 5.30468L11.3994 4.78125L10.582 5.30468L10.8984 4.45313L10.0811 3.92969H11.0918L11.3994 3.07812ZM17.1035 3.07812L17.4111 3.92969H18.4219L17.6045 4.45313L17.9121 5.30468L17.1035 4.78125L16.2861 5.30468L16.5938 4.45313L15.7852 3.92969H16.7871L17.1035 3.07812ZM22.7988 3.07812L23.1152 3.92969H24.1172L23.2998 4.45313L23.6162 5.30468L22.7988 4.78125L21.9902 5.30468L22.2979 4.45313L21.4805 3.92969H22.5L22.7988 3.07812ZM28.5029 3.07812L28.8105 3.92969H29.8213L29.0039 4.45313L29.3115 5.30468L28.5029 4.78125L27.6855 5.30468L27.9932 4.45313L27.1846 3.92969H28.1865L28.5029 3.07812ZM2.84766 5.22656L3.16406 6.09375H4.16602L3.35742 6.61719L3.66504 7.46875L2.84766 6.9375L2.03906 7.46875L2.34668 6.60938L1.5293 6.08594H2.54883L2.84766 5.22656ZM8.55176 5.22656L8.85938 6.08594H9.87012L9.05273 6.60938L9.36035 7.46093L8.55176 6.92969L7.73438 7.46093L8.04199 6.60156L7.2334 6.07812H8.23535L8.55176 5.22656ZM14.2471 5.22656L14.5635 6.08594H15.5566L14.748 6.60938L15.0557 7.46093L14.2383 6.92969L13.4297 7.46093L13.7373 6.60156L12.9199 6.07812H13.9307L14.2471 5.22656ZM19.9512 5.22656L20.2588 6.08594H21.2695L20.4521 6.60938L20.7686 7.46093L19.9512 6.92969L19.1338 7.46093L19.4502 6.60156L18.6328 6.07812H19.6348L19.9512 5.22656ZM25.6465 5.22656L25.9629 6.08594H26.9648L26.1563 6.60938L26.4639 7.46093L25.6465 6.92969L24.8379 7.46093L25.1455 6.60156L24.3369 6.07812H25.3389L25.6465 5.22656ZM31.3506 5.22656L31.6582 6.08594H32.6689L31.8516 6.60938L32.168 7.46093L31.3506 6.92969L30.5332 7.46093L30.8496 6.60156L30.0322 6.07812H31.043L31.3506 5.22656ZM5.7041 7.38281L6.01172 8.23437H7.02246L6.20508 8.75781L6.5127 9.61715L5.7041 9.08595L4.88672 9.60933L5.19434 8.75781L4.38574 8.23437H5.3877L5.7041 7.38281ZM11.3994 7.38281L11.7158 8.23437H12.7178L11.9004 8.75781L12.2168 9.61715L11.3994 9.08595L10.582 9.60933L10.8984 8.75781L10.0811 8.23437H11.0918L11.3994 7.38281ZM17.1035 7.38281L17.4111 8.23437H18.4219L17.6045 8.75781L17.9121 9.61715L17.1035 9.08595L16.2861 9.60933L16.5938 8.75781L15.7852 8.23437H16.7871L17.1035 7.38281ZM22.7988 7.38281L23.1152 8.23437H24.1172L23.3086 8.75781L23.6162 9.61715L22.7988 9.08595L21.9902 9.60933L22.2979 8.75781L21.4805 8.23437H22.5L22.7988 7.38281ZM28.5029 7.38281L28.8105 8.23437H29.8213L29.0039 8.75781L29.3115 9.61715L28.5029 9.08595L27.6855 9.60933L27.9932 8.75781L27.1846 8.23437H28.1865L28.5029 7.38281ZM2.84766 9.53902L3.16406 10.3907H4.16602L3.35742 10.914L3.66504 11.7734L2.84766 11.2422L2.03906 11.7656L2.34668 10.914L1.5293 10.3907H2.54883L2.84766 9.53902ZM8.55176 9.53902L8.85938 10.3907H9.87012L9.05273 10.914L9.36035 11.7656L8.55176 11.2422L7.73438 11.7656L8.04199 10.914L7.2334 10.3907H8.23535L8.55176 9.53902ZM14.2471 9.53902L14.5635 10.3907H15.5566L14.748 10.914L15.0557 11.7734L14.2383 11.2422L13.4297 11.7656L13.7373 10.914L12.9199 10.3907H13.9307L14.2471 9.53902ZM19.9512 9.53902L20.2588 10.3907H21.2695L20.4521 10.914L20.7686 11.7734L19.9512 11.2422L19.1338 11.7656L19.4502 10.914L18.6328 10.3907H19.6348L19.9512 9.53902ZM25.6465 9.53902L25.9629 10.3907H26.9648L26.1563 10.914L26.4639 11.7734L25.6465 11.2422L24.8379 11.7656L25.1455 10.914L24.3369 10.3907H25.3389L25.6465 9.53902ZM31.3506 9.53902L31.6582 10.3907H32.6689L31.8516 10.914L32.168 11.7734L31.3506 11.2422L30.5332 11.7656L30.8496 10.914L30.0322 10.3907H31.043L31.3506 9.53902ZM5.7041 11.6953L6.01172 12.5468H7.02246L6.20508 13.0703L6.5127 13.9219L5.7041 13.3907L4.88672 13.9219L5.19434 13.0625L4.38574 12.539H5.3877L5.7041 11.6953ZM11.3994 11.6953L11.7158 12.5468H12.7178L11.9004 13.0703L12.2168 13.9219L11.3994 13.3907L10.582 13.9219L10.8984 13.0625L10.0811 12.539H11.0918L11.3994 11.6953ZM17.1035 11.6953L17.4111 12.5468H18.4219L17.6045 13.0703L17.9121 13.9219L17.1035 13.3907L16.2861 13.9219L16.5938 13.0625L15.7852 12.539H16.7871L17.1035 11.6953ZM22.7988 11.6953L23.1152 12.5468H24.1172L23.3086 13.0703L23.6162 13.9219L22.7988 13.3907L21.9902 13.9219L22.2979 13.0625L21.4805 12.539H22.5L22.7988 11.6953ZM28.5029 11.6953L28.8105 12.5468H29.8213L29.0039 13.0703L29.3115 13.9219L28.5029 13.3907L27.6855 13.9219L27.9932 13.0625L27.1846 12.539H28.1865L28.5029 11.6953ZM2.84766 13.8437L3.16406 14.7031H4.16602L3.35742 15.2266L3.66504 16.0703L2.84766 15.5468L2.03906 16.0703L2.34668 15.2188L1.5293 14.6953H2.54883L2.84766 13.8437ZM8.55176 13.8437L8.85938 14.7031H9.87012L9.05273 15.2266L9.36914 16.0703L8.55176 15.5468L7.73438 16.0703L8.05078 15.2188L7.2334 14.6953H8.23535L8.55176 13.8437ZM14.2471 13.8437L14.5635 14.7031H15.5566L14.748 15.2266L15.0557 16.0703L14.2383 15.5468L13.4297 16.0703L13.7373 15.2188L12.9199 14.6953H13.9307L14.2471 13.8437ZM19.9512 13.8437L20.2588 14.7031H21.2695L20.4521 15.2266L20.7686 16.0703L19.9512 15.5468L19.1338 16.0703L19.4502 15.2188L18.6328 14.6953H19.6348L19.9512 13.8437ZM25.6465 13.8437L25.9629 14.7031H26.9648L26.1563 15.2266L26.4639 16.0703L25.6465 15.5468L24.8379 16.0703L25.1455 15.2188L24.3369 14.6953H25.3389L25.6465 13.8437ZM31.3506 13.8437L31.6582 14.7031H32.6689L31.8516 15.2266L32.168 16.0703L31.3506 15.5468L30.5332 16.0703L30.8496 15.2188L30.0322 14.6953H31.043L31.3506 13.8437ZM5.7041 16L6.01172 16.8516H7.02246L6.20508 17.375L6.5127 18.2344L5.7041 17.7031L4.88672 18.2266L5.19434 17.375L4.38574 16.8516H5.3877L5.7041 16ZM11.3994 16L11.7158 16.8516H12.7178L11.9004 17.375L12.2168 18.2344L11.3994 17.7031L10.582 18.2266L10.8984 17.375L10.0811 16.8516H11.0918L11.3994 16ZM17.1035 16L17.4111 16.8516H18.4219L17.6045 17.375L17.9121 18.2344L17.1035 17.7031L16.2861 18.2266L16.5938 17.375L15.7852 16.8516H16.7871L17.1035 16ZM22.7988 16L23.1152 16.8516H24.1172L23.3086 17.375L23.6162 18.2344L22.7988 17.7031L21.9902 18.2266L22.2979 17.375L21.4805 16.8516H22.5L22.7988 16ZM28.5029 16L28.8105 16.8516H29.8213L29.0039 17.375L29.3115 18.2344L28.5029 17.7031L27.6855 18.2266L27.9932 17.375L27.1846 16.8516H28.1865L28.5029 16ZM2.84766 18.1563L3.16406 19.0078H4.16602L3.35742 19.5313L3.66504 20.3828L2.84766 19.8594L2.03906 20.3828L2.34668 19.5235L1.5293 19H2.54883L2.84766 18.1563ZM8.55176 18.1563L8.85938 19.0078H9.87012L9.05273 19.5313L9.36914 20.3828L8.55176 19.8594L7.73438 20.3828L8.05078 19.5235L7.2334 19H8.23535L8.55176 18.1563ZM14.2471 18.1563L14.5635 19.0078H15.5566L14.7656 19.5313L15.0732 20.3828L14.2559 19.8594L13.4473 20.3828L13.7549 19.5235L12.9375 19H13.9482L14.2471 18.1563ZM19.9512 18.1563L20.2588 19.0078H21.2695L20.4521 19.5313L20.7686 20.3828L19.9512 19.8594L19.1338 20.3828L19.4502 19.5235L18.6328 19H19.6348L19.9512 18.1563ZM25.6465 18.1563L25.9629 19.0078H26.9648L26.1563 19.5313L26.4639 20.3828L25.6465 19.8594L24.8379 20.3828L25.1455 19.5235L24.3369 19H25.3389L25.6465 18.1563ZM31.3506 18.1563L31.6582 19.0078H32.6689L31.8516 19.5313L32.168 20.3828L31.3506 19.8594L30.5332 20.3828L30.8496 19.5235L30.0322 19H31.043L31.3506 18.1563Z" fill="white"/>
</g>
</g>
</g>
<defs>
<clipPath id="clip0_303_507">
<rect width="60" height="40" fill="white"/>
</clipPath>
</defs>
</svg>
